<svg width="265" height="220" viewBox="0 0 265 220" fill="none" xmlns="http://www.w3.org/2000/svg">
<path d="M121.028 106.921C118.288 104.658 115.213 102.75 111.862 101.283L92.7961 92.9336L92.6934 94.0995L56.5825 91.8009L57.0698 85.7348L49.6267 88.1863C47.6058 88.8514 45.6721 89.5895 43.8077 90.385L43.8056 90.3743L39.7667 91.0466C12.884 95.519 -4.3703 122.091 2.48 148.468L8.70341 172.431L11.8569 183.22C11.8789 183.294 11.9072 183.364 11.9299 183.437L12.3783 219.493L133.414 219.601L131.647 180.223L134.694 139.797C135.637 127.287 130.699 114.912 121.028 106.921Z" fill="#121936"/>
<path d="M92.216 219.513L92.2883 105.721L91.9355 92.3645L55.4925 94.8741L55.7411 101.278L54.3223 219.53L92.216 219.513Z" fill="#F0F0FB"/>
<path d="M69.5073 123.818L61.4365 169.835C61.3055 170.583 61.4061 171.353 61.7255 172.043L72.0693 194.396C73.418 197.311 77.578 197.266 78.8643 194.323L88.8554 171.472C89.1671 170.76 89.2478 169.966 89.0863 169.205L79.3935 123.597C79.0181 121.827 77.4257 120.584 75.6181 120.647L73.0461 120.739C71.2873 120.8 69.8118 122.085 69.5073 123.818Z" fill="#5856D6"/>
<path d="M62.6203 112.381L69.8538 123.791C71.9937 127.166 76.9499 127.069 78.9559 123.613L84.8131 113.518L76.4137 100.924L62.6203 112.381Z" fill="#5856D6"/>
<path d="M115.029 21.8954C115.627 15.4538 110.889 9.74749 104.448 9.15036C103.905 9.10007 103.37 9.10078 102.839 9.12416C97.1589 4.21894 93.1979 -1.08789 83.2387 0.193489C79.3995 0.687904 75.8324 2.66628 73.6486 5.86228C73.3447 6.30711 73.0777 6.78453 72.8354 7.27682C72.6385 7.67278 67.5597 8.24299 66.884 8.42999C62.1389 9.74324 56.0677 11.6982 53.6998 16.3987C52.4156 18.9459 52.2017 21.8904 52.2038 24.7429C52.2066 27.8029 52.2704 44.577 57.461 43.9515C57.942 43.8934 59.2822 45.6756 59.2822 45.6756C59.2822 45.6756 64.2426 50.0559 65.876 47.6355C66.1551 47.2226 67.5442 42.3599 67.5704 41.8917C67.6455 40.5607 67.6674 39.2276 67.7333 37.896C67.8785 35.0102 67.5937 31.9233 68.4862 29.1367C69.1152 27.1746 70.4179 25.4845 72.0655 24.2931C74.6077 25.7657 78.6048 27.1215 84.802 27.4742C86.1174 28.4503 87.7048 29.0942 89.4558 29.2564C90.9843 29.3981 92.457 29.1516 93.7865 28.6097C93.353 29.6446 93.0789 30.7659 93.0201 31.9516C92.746 37.4469 96.9783 42.1233 102.473 42.3974C107.968 42.6708 112.645 38.4385 112.919 32.944C112.996 31.3949 112.705 29.9173 112.139 28.5785C112.144 28.5665 112.149 28.5552 112.153 28.5424C113.738 26.7503 114.791 24.4617 115.029 21.8954Z" fill="#121936"/>
<path d="M101.707 31.0302C98.4569 30.7292 95.6363 29.1446 93.6926 26.827C92.1874 27.5686 90.4711 27.9263 88.6769 27.7598C84.7343 27.3936 81.5928 24.6425 80.5289 21.0661C77.6906 20.8904 75.2476 20.8784 74.1192 21.1971C71.0408 22.0677 68.3782 24.5228 67.3808 27.638C66.4749 30.4685 66.7632 33.6036 66.6166 36.5347C66.5486 37.8869 66.5266 39.2405 66.4508 40.5927C66.4458 40.6784 66.4055 40.8711 66.3431 41.1282C64.8663 40.1861 63.1174 39.6336 61.2368 39.6336C55.9816 39.6336 51.721 43.8936 51.721 49.1494C51.721 54.2487 55.7358 58.3988 60.7756 58.6411L56.5348 87.0715C55.4362 93.8431 60.0354 100.222 66.8064 101.32L75.572 102.085C82.3437 103.181 88.6124 99.2215 89.7096 92.4505L91.1334 83.6736C99.5378 82.978 106.204 76.003 106.334 67.3947L106.352 66.1749V66.1728L106.701 43.0131L106.724 41.493L106.892 30.346C105.283 30.936 103.526 31.1988 101.707 31.0302Z" fill="#FEA285"/>
<path d="M91.1336 83.674C91.1336 83.674 73.8495 83.3198 71.7054 76.9448C69.5613 70.5705 71.7054 76.9448 71.7054 76.9448C71.7054 76.9448 72.311 90.9875 89.9846 92.4793L91.1336 83.674Z" fill="#FF705E"/>
<path d="M58.9106 52.8051C58.6592 52.8051 58.4155 52.6713 58.2873 52.4347C58.1003 52.0904 58.2285 51.6605 58.572 51.4742L61.8233 49.7104L59.4348 45.8904C59.2272 45.5589 59.3285 45.1219 59.66 44.9143C59.9915 44.7061 60.4293 44.8081 60.6361 45.1396L63.4241 49.5985C63.5282 49.7643 63.5587 49.9654 63.5084 50.1546C63.4588 50.3437 63.3334 50.5038 63.1613 50.5966L59.2478 52.7194C59.1401 52.7775 59.0247 52.8051 58.9106 52.8051Z" fill="#FF705E"/>
<g opacity="0.460007">
<g opacity="0.460007">
<path opacity="0.460007" d="M106.905 29.4886V29.4872L106.701 43.0128L106.905 29.4886Z" fill="#FD6969"/>
</g>
</g>
<path d="M79.6307 43.3934C80.4091 43.4309 81.2407 43.0031 82.068 42.6383C82.8939 42.2523 83.7326 41.886 84.4714 41.5949C85.2123 41.3024 86.0744 40.9971 86.9378 40.7166C87.7914 40.4184 88.691 40.162 89.2378 39.6017C89.7705 39.0697 89.735 38.1638 88.6187 37.471C87.559 36.7868 85.3264 36.4694 82.8734 37.4299C80.4275 38.4025 78.9939 40.1676 78.668 41.3987C78.3082 42.673 78.8841 43.3665 79.6307 43.3934Z" fill="#121936"/>
<path d="M107.178 42.0974C106.536 42.1625 105.826 41.8445 105.123 41.5789C104.421 41.2948 103.71 41.0285 103.084 40.8195C102.457 40.6099 101.729 40.3945 100.999 40.1997C100.28 39.9908 99.5219 39.8179 99.0424 39.3774C98.5756 38.9609 98.5628 38.2086 99.4532 37.5867C100.298 36.974 102.131 36.6134 104.208 37.3019C106.279 38.0004 107.55 39.3986 107.88 40.4037C108.238 41.4436 107.794 42.0421 107.178 42.0974Z" fill="#121936"/>
<path d="M95.5413 73.7533C95.5413 73.7533 92.7937 71.8118 90.5568 74.1117L95.5413 73.7533Z" fill="#FFB394"/>
<path d="M90.5566 74.8204C90.3789 74.8204 90.2004 74.7538 90.0629 74.6199C89.7824 74.3472 89.7761 73.8988 90.0488 73.6183C92.1518 71.4558 94.8286 72.3823 95.9499 73.1749C96.2694 73.4009 96.3459 73.8429 96.1199 74.1623C95.8946 74.4811 95.4534 74.5569 95.1346 74.3338C95.0425 74.2693 92.8431 72.7776 91.0645 74.6058C90.9257 74.7488 90.7415 74.8204 90.5566 74.8204Z" fill="#FF705E"/>
<path d="M82.1362 55.3015C83.0471 54.9062 84.1054 55.2328 84.7082 56.0226C85.8068 57.4605 88.2824 60.1061 92.3029 61.2572C93.2889 61.5391 93.5992 62.802 93.0035 63.6386C91.6945 65.4774 88.5984 68.1202 83.7526 64.6912C77.8487 60.5134 79.7619 56.3321 82.1362 55.3015Z" fill="white"/>
<path d="M89.2437 49.3064C89.2437 49.3064 87.1556 47.3117 84.5071 49.3064H89.2437Z" fill="#FFB394"/>
<path d="M84.5081 50.0143C84.2928 50.0143 84.0803 49.9173 83.9414 49.7324C83.7063 49.42 83.7686 48.9759 84.081 48.74C86.5559 46.8757 88.8608 47.9594 89.7328 48.7938C90.0154 49.0637 90.026 49.5128 89.7555 49.7954C89.4863 50.0773 89.0407 50.0887 88.7574 49.8209C88.5824 49.6594 87.0156 48.3037 84.9338 49.8719C84.8063 49.9683 84.6562 50.0143 84.5081 50.0143Z" fill="#121936"/>
<path d="M104.558 50.2962C104.558 50.2962 103.156 48.9582 101.38 50.2962H104.558Z" fill="#FFB394"/>
<path d="M101.381 51.0048C101.166 51.0048 100.953 50.9078 100.814 50.7229C100.579 50.4105 100.641 49.9664 100.954 49.7305C102.739 48.3868 104.412 49.1773 105.047 49.7844C105.33 50.0542 105.34 50.5026 105.071 50.7852C104.801 51.0672 104.357 51.0792 104.074 50.8129C103.968 50.7172 103.039 49.9345 101.807 50.8624C101.679 50.9588 101.529 51.0048 101.381 51.0048Z" fill="#121936"/>
<path d="M91.8778 57.9083C91.744 57.8544 91.6582 57.7142 91.6795 57.564C91.7043 57.3883 91.8672 57.2658 92.0436 57.2913L94.9676 57.7085C96.8999 57.984 98.7267 56.4229 99.0391 54.2285L99.083 53.9253C99.2126 53.013 98.6778 52.1778 97.8817 52.0652C96.9849 51.937 96.1987 51.4263 95.6688 50.6273C95.1461 49.8403 94.9364 48.8642 95.0774 47.8811L95.7368 43.4058C95.763 43.2302 95.9274 43.109 96.103 43.1345C96.2759 43.1636 96.4005 43.3244 96.3743 43.5L95.7142 47.9732C95.5959 48.7991 95.7701 49.6165 96.205 50.2717C96.6315 50.9163 97.2583 51.3264 97.973 51.4284C99.117 51.5913 99.9004 52.7523 99.7198 54.0167L99.6773 54.3198C99.3139 56.8649 97.1606 58.6711 94.8762 58.3453L91.9522 57.9281C91.926 57.9245 91.9012 57.9175 91.8778 57.9083Z" fill="#FF705E"/>
<path d="M95.4105 58.7376C95.2171 58.7376 95.0223 58.7242 94.8268 58.6958L91.9028 58.2793C91.8497 58.2708 91.7965 58.2574 91.747 58.2375L91.7455 58.2368C91.4572 58.1207 91.2858 57.8239 91.3283 57.515C91.3815 57.146 91.7158 56.8903 92.0933 56.9406L95.0173 57.3578C96.762 57.6085 98.4039 56.1798 98.6893 54.1781L98.7318 53.8756C98.7878 53.4875 98.6964 53.1007 98.4818 52.8152C98.3635 52.658 98.1552 52.4618 97.8315 52.4157C96.8328 52.2727 95.9594 51.7074 95.3729 50.8234C94.8034 49.9642 94.5732 48.901 94.7262 47.8307L95.3864 43.3547C95.4416 42.9857 95.7859 42.7328 96.1542 42.7845C96.5254 42.8455 96.779 43.1897 96.7237 43.5531L96.065 48.0248C95.958 48.7643 96.1131 49.4932 96.5006 50.0761C96.8703 50.635 97.4108 50.9899 98.0228 51.0777C98.6766 51.1705 99.2496 51.5381 99.6371 52.1119C100.016 52.6736 100.17 53.3677 100.071 54.0669L100.028 54.3693C99.6683 56.8917 97.6601 58.7376 95.4105 58.7376Z" fill="#FF705E"/>
<path d="M96.7593 88.2115L99.7287 98.9073C100.079 100.17 99.6975 101.51 98.7306 102.416L87.1586 113.243C86.293 114.508 84.6674 114.438 83.9555 113.107L76.1107 101.148L93.5159 86.2628C94.9085 85.0572 96.8082 86.1991 96.7593 88.2115Z" fill="#FAFAFA"/>
<path d="M56.8413 80.1338L78.1303 101.433L63.0994 113.503C61.5971 114.543 59.3183 114.152 58.3139 112.682L47.0493 96.1988C46.2305 95.0003 46.1943 93.4313 46.9579 92.1967L54.3048 80.3208C54.8077 79.5083 56.1273 79.4106 56.8413 80.1338Z" fill="#FAFAFA"/>
<path d="M107.559 140.639L104.321 139.534C102.838 139.028 102.047 137.416 102.554 135.933L113.041 105.214C113.547 103.732 115.159 102.94 116.641 103.446L119.88 104.553C121.362 105.058 122.153 106.67 121.647 108.152L111.159 138.872C110.653 140.355 109.041 141.146 107.559 140.639Z" fill="#5856D6"/>
<path d="M118.779 114.474L111.124 111.861C110.046 111.493 109.47 110.32 109.838 109.242L110.917 106.082C111.285 105.004 112.457 104.428 113.536 104.797L121.19 107.41C122.269 107.778 122.844 108.95 122.476 110.029L121.397 113.188C121.03 114.266 119.857 114.842 118.779 114.474Z" fill="#FAFAFA"/>
<path d="M141.456 92.4865C138.178 102.088 127.737 107.214 118.136 103.936C108.534 100.658 103.408 90.217 106.686 80.6155C109.965 71.0141 120.405 65.8879 130.007 69.166C139.608 72.4442 144.735 82.885 141.456 92.4865ZM131.688 64.6702C119.585 60.5378 106.424 66.9999 102.292 79.1025C98.1595 91.2058 104.621 104.367 116.724 108.499C128.827 112.632 141.988 106.169 146.121 94.0668C150.253 81.9642 143.792 68.8027 131.688 64.6702Z" fill="white"/>
<g opacity="0.470001">
<g opacity="0.470001">
<path opacity="0.470001" d="M118.877 81.6341C118.127 83.8293 115.741 85.0008 113.547 84.2507C111.352 83.502 110.181 81.1156 110.929 78.9212C111.679 76.7268 114.065 75.5545 116.26 76.3046C118.454 77.0533 119.626 79.4397 118.877 81.6341Z" fill="white"/>
</g>
<g opacity="0.470001">
<path opacity="0.470001" d="M114.907 76.4333C113.307 76.4333 111.81 77.4398 111.264 79.0357C110.933 80.0075 110.999 81.0509 111.452 81.9717C111.905 82.894 112.689 83.5846 113.661 83.9154C114.634 84.249 115.675 84.1817 116.598 83.7291C117.519 83.2765 118.21 82.4924 118.541 81.5205C118.874 80.5487 118.807 79.5053 118.354 78.5838C117.902 77.6615 117.117 76.9716 116.146 76.6401C115.736 76.4999 115.318 76.4333 114.907 76.4333ZM114.908 84.8327C114.413 84.8327 113.915 84.7512 113.432 84.5862C112.282 84.1938 111.352 83.3764 110.816 82.2848C110.28 81.1926 110.201 79.9579 110.594 78.8069C111.406 76.4319 113.997 75.1569 116.374 75.9693C117.525 76.3624 118.454 77.1799 118.99 78.2714C119.526 79.3629 119.605 80.5983 119.212 81.7486C118.819 82.8996 118.002 83.829 116.91 84.3645C116.276 84.6761 115.594 84.8327 114.908 84.8327Z" fill="#FAFAFA"/>
</g>
</g>
<path d="M114.525 136.123C114.874 136.162 115.273 136.233 115.705 136.319C115.272 136.255 114.869 136.194 114.525 136.123ZM124.57 126.573C125.037 120.139 116.905 121.021 111.982 120.952C109.655 121.086 107.528 121.181 105.538 121.258C106.974 119.466 108.421 117.648 109.132 115.479C109.361 114.781 109.493 113.958 109.072 113.355C108.749 112.892 108.159 112.671 107.594 112.661C107.029 112.65 106.478 112.822 105.942 113C100.945 114.673 87.4896 122.223 87.4896 122.223C79.2127 127.949 72.8837 138.082 74.9159 144.661C75.0951 145.24 75.4812 145.729 75.9891 146.058C78.4165 147.637 85.9178 152.78 90.3201 152.109L110.751 149.513C114.533 149.227 117.298 145.211 114.719 143.887C117.618 144.422 120.987 143.971 121.273 140.362C121.664 138.387 120.42 137.454 118.811 136.939C121.473 137.362 124.151 137.263 124.616 134.287C125.587 131.129 123.2 129.833 120.62 129.214C122.475 129.295 124.218 128.792 124.57 126.573Z" fill="#FEA285"/>
<g opacity="0.360001">
<g opacity="0.360001">
<path opacity="0.360001" d="M105.538 121.258L94.4301 122.638C94.4301 122.638 105.965 117.961 107.993 117.894L105.538 121.258Z" fill="#FE6A48"/>
</g>
</g>
<path d="M114.016 129.684C113.828 129.684 113.672 129.536 113.663 129.346C113.653 129.151 113.804 128.985 114 128.976C114.677 128.943 120.649 128.669 121.72 128.919C121.911 128.964 122.029 129.154 121.985 129.345C121.94 129.535 121.752 129.653 121.559 129.61C120.733 129.416 115.846 129.597 114.032 129.683C114.027 129.684 114.022 129.684 114.016 129.684Z" fill="#FD6969"/>
<path d="M113.301 137.542C113.11 137.542 112.953 137.391 112.947 137.199C112.942 137.003 113.095 136.84 113.291 136.834L119.361 136.653C119.554 136.652 119.72 136.801 119.725 136.997C119.73 137.192 119.577 137.355 119.381 137.362L113.312 137.542H113.301Z" fill="#FD6969"/>
<path d="M111.448 144.267C111.254 144.267 111.096 144.11 111.094 143.915C111.093 143.72 111.25 143.56 111.445 143.558L114.717 143.533H114.719C114.914 143.533 115.072 143.69 115.074 143.884C115.075 144.08 114.918 144.24 114.722 144.241L111.451 144.267H111.448Z" fill="#FD6969"/>
<path d="M95.8775 155.954L91.1848 159.301C90.3992 159.861 89.3084 159.678 88.7474 158.892L71.1935 134.278C70.6325 133.492 70.8159 132.401 71.6022 131.841L76.2942 128.494C77.0797 127.933 78.1713 128.116 78.7316 128.902L96.2855 153.516C96.8458 154.302 96.663 155.393 95.8775 155.954Z" fill="#FAFAFA"/>
<path d="M1.41141 130.457C0.212913 142.813 -0.813463 155.837 0.931163 168.176C2.04962 176.086 4.74625 184.098 10.4278 189.714C18.245 197.441 30.747 199.115 40.3478 193.837C46.5925 190.404 53.3266 186.552 59.9134 182.715C73.6126 174.735 86.6742 166.82 93.3673 162.876C94.8215 162.02 95.2281 160.102 94.2449 158.731L74.068 130.584C73.4312 129.696 72.2263 129.431 71.2758 129.97L35.6976 150.169L1.41141 130.457Z" fill="#121936"/>
<path d="M27.6017 197.477C18.727 197.477 11.325 191.318 11.2336 191.241C11.0841 191.114 11.0657 190.891 11.1918 190.741C11.3179 190.592 11.5417 190.574 11.6912 190.7C11.8002 190.792 22.7617 199.902 33.7876 195.632C46.8387 190.573 54.9158 185.211 54.9951 185.157C55.1573 185.048 55.3769 185.092 55.4867 185.254C55.5958 185.417 55.5519 185.637 55.3897 185.746C55.3089 185.801 47.173 191.203 34.0433 196.291C31.8659 197.135 29.6928 197.477 27.6017 197.477Z" fill="#FAFAFA"/>
<path d="M35.2022 150.239C35.0364 150.239 34.8884 150.122 34.8551 149.953L31.2624 131.746C31.2249 131.554 31.3496 131.367 31.5415 131.33C31.7328 131.289 31.9191 131.416 31.9573 131.608L35.55 149.816C35.5875 150.008 35.4629 150.195 35.2709 150.232C35.2475 150.237 35.2249 150.239 35.2022 150.239Z" fill="#FAFAFA"/>
<path d="M24.4786 156.141C24.3539 156.141 24.2321 156.075 24.1683 155.958C24.0734 155.786 24.1365 155.571 24.3072 155.477L52.0143 140.228C52.1865 140.134 52.4011 140.196 52.4953 140.367C52.5895 140.539 52.5272 140.754 52.3558 140.849L24.6493 156.097C24.5948 156.127 24.5367 156.141 24.4786 156.141Z" fill="#FAFAFA"/>
<path d="M85.3188 157.461C85.1998 157.461 85.0794 157.476 84.9597 157.508C84.2103 157.706 83.7612 158.479 83.9588 159.228C84.1571 159.979 84.9306 160.427 85.6786 160.229C86.4281 160.031 86.8771 159.259 86.6795 158.509C86.5131 157.879 85.9421 157.461 85.3188 157.461ZM85.3195 160.985C84.3831 160.985 83.5246 160.356 83.2739 159.409C82.9764 158.281 83.6514 157.122 84.7784 156.824C85.9053 156.524 87.0663 157.201 87.3645 158.328C87.662 159.456 86.9869 160.616 85.86 160.914C85.6794 160.961 85.498 160.985 85.3195 160.985Z" fill="#FAFAFA"/>
<path d="M247.372 82.4446C246.107 76.7751 242.824 72.0102 238.294 68.5061C237.239 67.5548 236.241 66.7033 235.324 65.9525C232.14 63.3466 227.87 60.8235 227.363 56.9574C231.623 45.3173 220.071 37.3436 219.828 36.245C216.927 23.1231 194.723 16.4478 189.052 23.3285C188.812 23.6204 173.713 18.4474 161.602 35.951C159.669 38.7447 159.627 41.3861 159.091 44.2669C158.126 49.4632 159.455 53.9541 158.462 58.3748C157.694 61.8003 159.649 65.2484 163.042 66.0814C163.233 66.1282 163.411 66.17 163.576 66.2054C161.438 70.3796 158.482 74.0828 154.646 77.9814L153.868 78.7727C143.286 89.5294 145.479 106.025 154.734 112.574L157.403 114.484C157.816 114.779 158.24 115.059 158.672 115.323C160.244 116.285 161.145 117.832 161.067 119.556C160.923 122.754 161.418 126.011 162.717 129.212C167.548 141.118 182 148.028 196.842 145.43C207.135 143.629 215.502 137.894 220.231 130.516C225.884 121.698 232.965 113.575 240.328 105.69C246.347 99.2449 249.233 90.7881 247.372 82.4446Z" fill="#121936"/>
<path d="M196.637 41.9374C198.069 43.3208 194.222 44.884 196.547 50.0882C199.949 55.3497 201.966 56.2344 204.954 56.6063L207.487 55.944L212.133 55.876C216.892 55.8065 220.844 59.6663 220.916 64.4532L220.919 64.6515C220.991 69.4384 217.156 73.4122 212.397 73.4809L208.925 73.5319L211.135 101.078C211.472 108.944 203.975 113.757 196.028 114.095L195.699 114.11C187.752 114.449 180.975 108.291 180.637 100.424L180.343 93.5451C171.195 92.4635 164.362 83.5661 164.912 73.1565L166.362 45.6802C168.728 46.5522 171.605 47.3073 175.091 47.779C181.062 48.5865 192.91 45.081 196.637 41.9374Z" fill="#DA6448"/>
<path d="M180.344 93.5456C180.344 93.5456 197.344 93.4415 199.924 87.2492C202.504 81.0577 199.924 87.2492 199.924 87.2492C199.924 87.2492 201.573 98.5117 180.713 101.388L180.344 93.5456Z" fill="#BC432A"/>
<path d="M213.282 67.7357C213.161 67.7357 213.037 67.7045 212.925 67.6379L210.013 65.928C209.834 65.8239 209.711 65.6468 209.674 65.4442C209.637 65.2416 209.69 65.0327 209.82 64.8726L212.668 61.3486C212.913 61.0448 213.357 60.9966 213.663 61.2424C213.967 61.4889 214.015 61.9344 213.769 62.239L211.439 65.1233L213.642 66.4168C213.979 66.6144 214.092 67.0486 213.894 67.3858C213.762 67.611 213.525 67.7357 213.282 67.7357Z" fill="#BC432A"/>
<path d="M213.922 71.3728C213.827 71.3728 213.732 71.3784 213.637 71.3884C212.244 71.5442 211.238 72.8107 211.394 74.2125C211.469 74.8918 211.803 75.5009 212.333 75.9274C212.863 76.3531 213.524 76.5429 214.199 76.4714C215.591 76.3162 216.597 75.049 216.442 73.6472C216.366 72.9679 216.032 72.3595 215.502 71.9324C215.047 71.5669 214.495 71.3728 213.922 71.3728ZM213.911 77.9036C213.017 77.9036 212.154 77.6012 211.446 77.0317C210.621 76.3687 210.102 75.423 209.985 74.3683C209.745 72.1916 211.311 70.2231 213.479 69.9809C214.529 69.8619 215.563 70.1636 216.389 70.8281C217.214 71.4911 217.733 72.4367 217.85 73.4914C218.092 75.6688 216.525 77.6373 214.356 77.8788C214.207 77.8951 214.058 77.9036 213.911 77.9036Z" fill="#FAFAFA"/>
<path d="M166.687 65.3784C166.754 65.4223 166.852 65.4874 166.949 65.5505C166.878 65.5044 166.791 65.4471 166.687 65.3784Z" fill="#291F19"/>
<path d="M166.606 65.3256C166.636 65.3455 166.658 65.3604 166.686 65.3788C166.638 65.3469 166.606 65.3256 166.606 65.3256Z" fill="#291F19"/>
<path d="M166.949 65.5508C167.393 65.8426 167.19 65.7094 166.949 65.5508V65.5508Z" fill="#291F19"/>
<path d="M182.135 63.0977C182.16 66.6238 185.019 69.4769 188.517 69.4769H188.558C190.262 69.4656 191.858 68.7884 193.054 67.5687C194.251 66.3482 194.904 64.7318 194.893 63.0162C194.882 61.4841 194.327 60.0044 193.33 58.8498C192.114 57.4416 190.359 56.637 188.51 56.637H188.469C186.766 56.6483 185.17 57.3255 183.974 58.5445C182.776 59.765 182.123 61.3821 182.135 63.0977ZM188.517 70.8936C184.242 70.8936 180.749 67.4114 180.718 63.1076C180.704 61.0152 181.5 59.0418 182.962 57.5528C184.424 56.0618 186.377 55.2338 188.46 55.2203C190.734 55.1856 192.905 56.1907 194.401 57.924C195.618 59.3329 196.296 61.1377 196.31 63.0063C196.324 65.0987 195.527 67.0714 194.066 68.5611C192.603 70.0514 190.651 70.8801 188.568 70.8936H188.517Z" fill="#FAFAFA"/>
<path d="M162.617 63.0043C162.642 66.5304 165.501 69.3835 168.999 69.3835H169.04C170.744 69.3722 172.34 68.695 173.536 67.4753C174.733 66.2548 175.386 64.6384 175.375 62.9228C175.35 59.3968 172.49 56.5436 168.992 56.5436H168.951C167.248 56.5549 165.652 57.2321 164.456 58.4511C163.258 59.6716 162.605 61.2887 162.617 63.0043ZM168.999 70.8002C164.724 70.8002 161.231 67.318 161.2 63.0142C161.186 60.9218 161.982 58.9484 163.444 57.4595C164.906 55.9684 166.859 55.1404 168.942 55.1269H168.992C173.268 55.1269 176.761 58.6091 176.792 62.9129C176.806 65.0053 176.009 66.978 174.548 68.4677C173.085 69.958 171.133 70.7868 169.05 70.8002H168.999Z" fill="#FAFAFA"/>
<path d="M181.01 71.2167C179.502 71.3194 178.304 71.6297 176.919 70.7294C175.99 70.1259 175.187 69.0619 174.965 67.9265C174.715 66.6465 175.595 65.4162 176.871 65.1782L177.684 65.0273C177.814 65.0025 177.913 64.8934 177.925 64.7609L178.635 56.6024" fill="#DA6448"/>
<path d="M179.119 72.0588C178.293 72.0588 177.438 71.9108 176.533 71.3229C175.385 70.577 174.518 69.3275 174.27 68.0624C174.116 67.2726 174.283 66.4658 174.74 65.7908C175.204 65.1094 175.933 64.6327 176.741 64.4818L177.246 64.3876L177.93 56.5414C177.964 56.1518 178.313 55.8621 178.697 55.8975C179.087 55.9308 179.375 56.2743 179.341 56.6646L178.63 64.8225C178.591 65.2702 178.255 65.6406 177.814 65.7235L177 65.8744C176.561 65.9565 176.165 66.2158 175.913 66.5869C175.669 66.9468 175.579 67.3739 175.66 67.7911C175.834 68.6787 176.479 69.5988 177.304 70.135C178.26 70.7562 179.09 70.6783 180.236 70.5713C180.471 70.5494 180.713 70.5267 180.963 70.5097C181.349 70.4892 181.691 70.7789 181.717 71.1684C181.743 71.5587 181.449 71.8966 181.058 71.9235C180.821 71.9398 180.591 71.9611 180.368 71.9816C179.958 72.0199 179.542 72.0588 179.119 72.0588Z" fill="#BC432A"/>
<path d="M176.006 62.859C175.801 62.859 175.598 62.7711 175.459 62.6011C175.209 62.2994 175.253 61.8531 175.554 61.6045C177.898 59.6722 180.741 60.7148 181.917 61.5337C182.237 61.7582 182.315 62.1995 182.092 62.5204C181.868 62.8413 181.427 62.9185 181.107 62.6968C180.993 62.6188 178.544 60.9755 176.455 62.6968C176.324 62.8058 176.164 62.859 176.006 62.859Z" fill="#FAFAFA"/>
<path d="M208.712 55.2276L195.766 59.3685L208.712 55.2276Z" fill="white"/>
<path d="M195.766 60.0772C195.465 60.0772 195.188 59.8852 195.091 59.5842C194.972 59.2116 195.177 58.8128 195.55 58.6938L208.496 54.5529C208.87 54.4339 209.268 54.6393 209.386 55.0119C209.506 55.3845 209.3 55.7832 208.928 55.9022L195.982 60.0432C195.909 60.0658 195.837 60.0772 195.766 60.0772Z" fill="#FAFAFA"/>
<path d="M177.583 84.1914C177.657 84.2134 177.74 84.2106 177.817 84.1787C177.895 84.1461 179.766 83.3889 181.091 84.8899C181.219 85.0344 181.439 85.0478 181.583 84.9189C181.729 84.7907 181.741 84.569 181.613 84.4238C179.95 82.5424 177.57 83.5221 177.546 83.5313C177.369 83.6071 177.287 83.8125 177.362 83.9903C177.403 84.0909 177.486 84.1624 177.583 84.1914Z" fill="#BC432A"/>
<path d="M193.136 54.5887C192.516 54.7658 191.764 54.5915 191.029 54.4647C190.291 54.321 189.547 54.1956 188.896 54.1099C188.244 54.0227 187.492 53.9491 186.743 53.8952C185.999 53.8251 185.225 53.7968 184.68 53.4653C184.151 53.1529 184.012 52.441 184.784 51.6909C185.513 50.9578 187.256 50.2863 189.415 50.5682C191.569 50.8593 193.053 51.9594 193.544 52.8547C194.07 53.7777 193.734 54.4265 193.136 54.5887Z" fill="#121936"/>
<path d="M164.68 54.3134C165.294 54.5118 166.051 54.3637 166.79 54.2632C167.532 54.1456 168.28 54.0464 168.933 53.9834C169.589 53.9196 170.342 53.8722 171.093 53.8445C171.838 53.8006 172.612 53.7992 173.169 53.4868C173.708 53.1936 173.87 52.4867 173.124 51.7103C172.421 50.9517 170.701 50.22 168.534 50.4254C166.371 50.6414 164.851 51.6884 164.33 52.566C163.774 53.4698 164.088 54.1293 164.68 54.3134Z" fill="#121936"/>
<path d="M189.263 72.6174C188.652 72.164 187.808 72.2271 187.224 72.7144C186.16 73.6034 183.864 75.1589 180.672 75.3289C179.889 75.37 179.442 76.2625 179.743 76.992C180.404 78.595 182.259 81.1089 186.455 79.3749C191.567 77.2619 190.856 73.7989 189.263 72.6174Z" fill="white"/>
<path d="M191.149 63.37C191.149 63.37 189.055 61.1579 185.72 63.2906L191.149 63.37Z" fill="#DA6448"/>
<path d="M191.148 64.0781C190.962 64.0781 190.776 64.0052 190.637 63.86C190.555 63.7764 188.865 62.1217 186.101 63.8876C185.772 64.0987 185.334 64.0023 185.123 63.6723C184.912 63.3429 185.008 62.9051 185.338 62.6941C188.367 60.7575 190.799 61.9708 191.663 62.8832C191.931 63.1672 191.92 63.6156 191.635 63.8841C191.498 64.0137 191.323 64.0781 191.148 64.0781Z" fill="#121936"/>
<path d="M173.109 64.1254C173.109 64.1254 171.279 62.1909 168.361 64.0559L173.109 64.1254Z" fill="#DA6448"/>
<path d="M173.109 64.834C172.923 64.834 172.738 64.7611 172.599 64.6166C172.446 64.4614 171.059 63.173 168.744 64.6534C168.414 64.8645 167.976 64.7682 167.765 64.4381C167.555 64.1087 167.651 63.6702 167.98 63.4599C170.676 61.7351 172.852 62.8224 173.624 63.6391C173.893 63.9231 173.881 64.3715 173.596 64.6407C173.459 64.7696 173.284 64.834 173.109 64.834Z" fill="#121936"/>
<path d="M137.303 155.611C135.469 108.791 177.765 103.265 177.765 103.265L177.768 103.457L181.614 102.469L197.09 109.81L212.382 99.4991L228.626 102.995C236.337 104.654 243.586 108.12 249.511 113.325C257.507 120.35 265.369 132.115 264.833 151.082C264.812 151.838 263.972 159.745 263.972 159.745L244.165 198.705C246.281 203.04 252.71 219.601 252.71 219.601H143.074L150.05 196.557L137.303 155.611Z" fill="#5856D6"/>
<path d="M179.976 103.506L196.475 110.078L214.198 99.8896L212.594 219.6H177.021L179.976 103.506Z" fill="#121936"/>
<path d="M195.641 140.134H195.634C195.438 140.129 195.283 139.968 195.287 139.772L195.909 109.216C195.913 109.019 196.082 108.864 196.27 108.868C196.465 108.872 196.621 109.034 196.617 109.229L195.995 139.786C195.991 139.98 195.833 140.134 195.641 140.134Z" fill="#FAFAFA"/>
<path d="M191.96 119.064C191.526 119.064 191.173 119.416 191.173 119.85C191.173 120.284 191.526 120.637 191.96 120.637C192.393 120.637 192.746 120.284 192.746 119.85C192.746 119.416 192.393 119.064 191.96 119.064ZM191.96 121.345C191.135 121.345 190.465 120.674 190.465 119.85C190.465 119.025 191.135 118.355 191.96 118.355C192.784 118.355 193.454 119.025 193.454 119.85C193.454 120.674 192.784 121.345 191.96 121.345Z" fill="#FAFAFA"/>
<path d="M191.827 126.805C191.393 126.805 191.041 127.158 191.041 127.591C191.041 128.026 191.393 128.378 191.827 128.378C192.26 128.378 192.613 128.026 192.613 127.591C192.613 127.158 192.26 126.805 191.827 126.805ZM191.827 129.087C191.002 129.087 190.332 128.416 190.332 127.591C190.332 126.767 191.002 126.097 191.827 126.097C192.651 126.097 193.321 126.767 193.321 127.591C193.321 128.416 192.651 129.087 191.827 129.087Z" fill="#FAFAFA"/>
<path d="M196.042 116.802L195.913 111.321C195.726 103.389 203.495 96.7536 213.265 96.4986C213.265 96.4986 221.158 115.927 196.042 116.802Z" fill="#FAFAFA"/>
<path d="M196.136 116.8L196.007 111.319C195.82 103.387 187.746 97.1654 177.975 97.4204C177.975 97.4204 171.01 117.236 196.136 116.8Z" fill="#FAFAFA"/>
<path d="M107.299 125.426L125.361 188.606C125.953 190.678 128.262 191.984 130.654 191.601L168.13 185.59C170.718 185.175 172.414 182.95 171.868 180.688L156.323 116.38C155.797 114.202 153.384 112.811 150.902 113.255L110.908 120.394C108.298 120.859 106.651 123.157 107.299 125.426Z" fill="#FAFAFA"/>
<g opacity="0.449997">
<g opacity="0.449997">
<path opacity="0.449997" d="M111.525 127.637L127.427 184.232C127.898 185.908 129.764 186.97 131.681 186.664L164.606 181.299C165.673 181.125 166.604 180.548 167.158 179.715C167.637 178.998 167.794 178.155 167.6 177.343L153.91 119.738C153.492 117.979 151.545 116.844 149.553 117.203L114.415 123.577C113.341 123.771 112.42 124.373 111.886 125.227C111.424 125.965 111.296 126.822 111.525 127.638V127.637ZM131.019 187.425C129.041 187.425 127.247 186.209 126.745 184.424L110.843 127.829C110.56 126.818 110.716 125.761 111.285 124.851C111.924 123.828 113.019 123.109 114.289 122.879L149.427 116.505C151.773 116.082 154.096 117.456 154.599 119.574L168.29 177.178C168.529 178.184 168.336 179.225 167.748 180.108C167.085 181.103 165.981 181.793 164.72 181.997L131.795 187.362C131.535 187.405 131.276 187.425 131.019 187.425Z" fill="#EFDECC"/>
</g>
</g>
<path d="M191.527 149.203L182.102 141.894C179.1 139.565 175.499 138.132 171.716 137.765L159.461 136.571C157.702 136.4 155.932 136.743 154.364 137.56L148.565 140.581C147.64 141.063 147.091 142.047 147.167 143.087L147.215 143.769L146.77 143.984C145.549 144.573 144.777 145.813 144.789 147.169L144.807 149.574L144.411 150.516C143.869 151.808 144.12 153.297 145.058 154.338L154.135 164.423C154.69 165.039 155.653 165.053 156.225 164.453C157.637 162.97 157.727 160.669 156.435 159.08L153.625 155.626L163.005 161.117C164.548 162.02 166.284 162.543 168.07 162.644L173.837 162.97L180.989 171.448L191.527 149.203Z" fill="#DA6448"/>
<path d="M154.307 141.73L147.369 143.982L154.307 141.73Z" fill="#DA6448"/>
<path d="M147.369 144.336C147.22 144.336 147.081 144.241 147.032 144.091C146.972 143.905 147.074 143.705 147.26 143.644L154.198 141.393C154.384 141.332 154.584 141.434 154.645 141.62C154.704 141.806 154.603 142.006 154.416 142.066L147.478 144.319C147.443 144.33 147.405 144.336 147.369 144.336Z" fill="#BC432A"/>
<path d="M153.708 147.265L145.082 149.506L153.708 147.265Z" fill="#DA6448"/>
<path d="M145.082 149.86C144.924 149.86 144.78 149.754 144.739 149.595C144.689 149.405 144.803 149.213 144.992 149.163L153.619 146.923C153.81 146.874 154.002 146.988 154.051 147.176C154.1 147.366 153.985 147.559 153.797 147.608L145.171 149.849C145.141 149.856 145.111 149.86 145.082 149.86Z" fill="#BC432A"/>
<path d="M151.875 153.689L153.626 155.626L151.875 153.689Z" fill="#DA6448"/>
<path d="M153.625 155.981C153.528 155.981 153.433 155.941 153.363 155.864L151.612 153.927C151.481 153.782 151.492 153.558 151.637 153.427C151.782 153.296 152.006 153.307 152.137 153.453L153.888 155.389C154.019 155.534 154.008 155.758 153.863 155.889C153.795 155.95 153.71 155.981 153.625 155.981Z" fill="#BC432A"/>
<path d="M177.19 172.238L181.477 174.377C182.34 174.807 183.39 174.457 183.821 173.593L195.733 149.708C196.164 148.845 195.813 147.795 194.949 147.364L190.662 145.226C189.798 144.795 188.748 145.147 188.318 146.01L176.406 169.894C175.974 170.758 176.326 171.808 177.19 172.238Z" fill="#FAFAFA"/>
<path d="M264.531 154.413C263.727 160.639 263.659 165.904 262.855 172.131C262.571 174.332 262.078 177.285 261.484 180.545C259.637 190.681 251.441 197.833 241.989 199.052C238.547 199.495 234.939 199.152 231.41 197.881C225.41 195.719 218.918 193.256 212.559 190.785C199.333 185.646 186.681 180.476 180.212 177.925C178.807 177.372 178.18 175.733 178.857 174.383L192.757 146.68C193.196 145.806 194.224 145.403 195.139 145.748L229.415 158.629L264.531 154.413Z" fill="#5856D6"/>
<path d="M233.238 159.897C233.216 159.897 233.194 159.895 233.171 159.891C232.979 159.854 232.853 159.669 232.89 159.476L236.886 138.548C236.923 138.356 237.11 138.231 237.3 138.267C237.493 138.304 237.619 138.489 237.582 138.681L233.585 159.61C233.553 159.779 233.404 159.897 233.238 159.897Z" fill="#353148"/>
<path d="M240.118 162.38C240.078 162.38 240.038 162.373 239.998 162.359L213.374 152.753C213.189 152.687 213.094 152.484 213.16 152.3C213.228 152.117 213.429 152.023 213.614 152.087L240.238 161.692C240.423 161.758 240.518 161.962 240.452 162.146C240.399 162.29 240.263 162.38 240.118 162.38Z" fill="#353148"/>
<path d="M239.796 199.905C237.764 199.905 235.731 199.546 233.819 198.831L211.981 190.94C211.797 190.873 211.702 190.67 211.768 190.486C211.835 190.303 212.04 190.209 212.222 190.273L234.063 198.166C237.324 199.385 240.949 199.527 244.277 198.57C244.466 198.514 244.661 198.624 244.715 198.812C244.769 199 244.661 199.197 244.474 199.25C242.954 199.687 241.375 199.905 239.796 199.905Z" fill="#353148"/>
<path d="M185.199 173.098H185.206H185.199ZM186.763 172.036C186.483 172.036 186.214 172.131 185.994 172.311C185.742 172.517 185.584 172.809 185.551 173.134C185.517 173.459 185.613 173.777 185.819 174.03C186.025 174.283 186.318 174.44 186.643 174.473C186.967 174.506 187.286 174.411 187.539 174.205C187.791 173.998 187.949 173.706 187.982 173.381C188.015 173.056 187.919 172.738 187.713 172.485C187.507 172.233 187.215 172.075 186.89 172.042C186.848 172.038 186.806 172.036 186.763 172.036ZM186.77 175.188C186.704 175.188 186.637 175.184 186.571 175.178C186.059 175.125 185.597 174.878 185.271 174.477C184.945 174.078 184.794 173.576 184.847 173.062C184.898 172.55 185.147 172.087 185.547 171.762C185.947 171.435 186.449 171.286 186.962 171.338C187.475 171.39 187.936 171.638 188.262 172.038C188.588 172.437 188.739 172.94 188.687 173.453C188.635 173.966 188.386 174.428 187.987 174.754C187.638 175.037 187.213 175.188 186.77 175.188Z" fill="#FAFAFA"/>
<path d="M121.799 176.136L117.669 162.083L107.006 149.019L106.55 149.225C101.972 151.289 100.205 156.876 102.764 161.197C103.567 168.356 109.048 174.1 116.162 175.235L121.799 176.136Z" fill="#DA6448"/>
<path d="M118.559 145.338C118.244 144.637 117.42 144.325 116.719 144.641L106.55 149.224L108.917 154.474L116.373 151.113C118.572 150.122 119.55 147.536 118.559 145.338Z" fill="#DA6448"/>
<path d="M120.926 150.587C120.611 149.887 119.786 149.574 119.085 149.891L108.917 154.474L111.283 159.724L118.739 156.362C120.938 155.372 121.917 152.786 120.926 150.587Z" fill="#DA6448"/>
<path d="M123.292 155.837C122.977 155.136 122.152 154.824 121.452 155.141L111.283 159.724L113.65 164.974L121.106 161.613C123.305 160.622 124.283 158.036 123.292 155.837Z" fill="#DA6448"/>
<path d="M108.917 154.74C108.815 154.74 108.719 154.682 108.674 154.583C108.614 154.449 108.674 154.292 108.808 154.232L116.998 150.54C117.131 150.48 117.288 150.539 117.349 150.673C117.41 150.807 117.35 150.964 117.217 151.025L109.026 154.716C108.99 154.732 108.953 154.74 108.917 154.74Z" fill="#BC432A"/>
<path d="M111.283 159.99C111.182 159.99 111.085 159.932 111.041 159.834C110.981 159.7 111.04 159.542 111.174 159.482L119.364 155.79C119.497 155.73 119.656 155.788 119.716 155.923C119.776 156.057 119.716 156.214 119.583 156.274L111.392 159.967C111.357 159.982 111.32 159.99 111.283 159.99Z" fill="#BC432A"/>
<path d="M123.448 161.929C123.166 161.302 122.429 161.024 121.802 161.306L112.704 165.407L114.821 170.103L121.492 167.096C123.46 166.209 124.335 163.896 123.448 161.929Z" fill="#DA6448"/>
<path d="M112.704 165.672C112.603 165.672 112.507 165.614 112.462 165.516C112.402 165.382 112.462 165.225 112.595 165.165L119.922 161.861C120.056 161.801 120.214 161.86 120.274 161.994C120.334 162.128 120.275 162.285 120.141 162.345L112.814 165.649C112.778 165.665 112.741 165.672 112.704 165.672Z" fill="#BC432A"/>
</svg>
