<svg width="265" height="218" viewBox="0 0 265 218" fill="none" xmlns="http://www.w3.org/2000/svg">
<path d="M145.914 76.0442C143.321 69.9146 136.249 67.0479 130.119 69.6417C128.29 70.4157 126.751 71.5884 125.562 73.0164L121.239 72.3554L123.533 76.5053C122.485 79.2949 122.464 82.4756 123.717 85.437C126.311 91.5666 133.382 94.4327 139.512 91.8389C145.641 89.2458 148.508 82.1739 145.914 76.0442Z" fill="#4947DC"/>
<path d="M140.631 85.445H129.168C129.005 85.445 128.874 85.3132 128.874 85.1509C128.874 84.9886 129.005 84.8568 129.168 84.8568H140.631C140.794 84.8568 140.925 84.9886 140.925 85.1509C140.925 85.3132 140.794 85.445 140.631 85.445Z" fill="white"/>
<path d="M140.631 81.5915H129.168C129.005 81.5915 128.874 81.4598 128.874 81.2974C128.874 81.1351 129.005 81.0034 129.168 81.0034H140.631C140.794 81.0034 140.925 81.1351 140.925 81.2974C140.925 81.4598 140.794 81.5915 140.631 81.5915Z" fill="white"/>
<path d="M140.631 77.4175H129.168C129.005 77.4175 128.874 77.2858 128.874 77.1234C128.874 76.9611 129.005 76.8293 129.168 76.8293H140.631C140.794 76.8293 140.925 76.9611 140.925 77.1234C140.925 77.2858 140.794 77.4175 140.631 77.4175Z" fill="white"/>
<path d="M128.283 46.0813C130.673 57.719 142.045 65.2161 153.683 62.8253C157.156 62.1119 160.26 60.5992 162.843 58.5177L170.177 61.1903L167.617 53.1221C170.429 48.6068 171.581 43.0471 170.427 37.4256C168.037 25.7879 156.665 18.2913 145.027 20.681C133.389 23.0712 125.892 34.4436 128.283 46.0813Z" fill="#9C9BE4"/>
<path d="M145.84 39.9553L146.328 43.2201C146.48 44.2288 146.722 44.881 147.514 45.2292C147.904 45.4004 148.366 45.4821 148.968 45.4868C149.477 45.478 149.844 45.4168 150.112 45.2539C150.378 45.094 150.479 44.8593 150.501 44.357C150.502 44.3158 150.492 44.1429 150.483 43.9582C150.444 43.2383 150.44 43.1625 150.689 43.1054C150.926 43.049 151.18 42.9937 151.44 42.9366C152.25 42.7596 153.088 42.5761 153.693 42.3038C154.489 41.9438 155.189 41.4833 155.773 40.934C156.351 40.3882 156.814 39.7224 157.148 38.9555C157.481 38.1885 157.65 37.2633 157.65 36.2059C157.65 35.039 157.447 34.045 157.028 33.1663C156.613 32.2911 156.03 31.5442 155.296 30.9466C154.559 30.3414 153.658 29.8686 152.617 29.5386C151.567 29.2093 150.401 29.0416 149.15 29.0416C147.779 29.0416 145.167 29.224 143.085 30.4455C142.124 31.0096 141.482 31.833 141.325 32.704C141.208 33.3575 141.369 34.0685 141.757 34.6055C142.144 35.1443 142.766 35.5224 143.423 35.6183C144.324 35.7483 145.262 35.4048 146.259 35.0401C147.767 34.4879 149.328 33.9174 150.824 35.0372C151.356 35.436 151.626 35.9947 151.626 36.6981C151.626 37.5815 151.163 38.2997 150.249 38.8325C149.395 39.3325 147.988 39.6589 145.951 39.83L145.84 39.9553ZM149.01 46.075C148.994 46.075 148.979 46.075 148.964 46.075C148.278 46.0697 147.743 45.9721 147.277 45.768C146.129 45.2633 145.885 44.2329 145.747 43.3072L145.238 39.9065C145.225 39.8206 145.251 39.733 145.309 39.6677L145.589 39.3513C145.64 39.2942 145.71 39.2589 145.786 39.2531C147.769 39.0948 149.171 38.7825 149.952 38.325C150.693 37.8927 151.037 37.3763 151.037 36.6981C151.037 36.1829 150.852 35.7936 150.471 35.5083C149.231 34.579 147.886 35.0713 146.461 35.5924C145.439 35.9665 144.386 36.3535 143.338 36.2C142.515 36.08 141.765 35.6242 141.279 34.9496C140.794 34.2756 140.6 33.4192 140.747 32.6005C140.934 31.5595 141.678 30.5896 142.788 29.938C144.99 28.6464 147.719 28.4535 149.15 28.4535C150.46 28.4535 151.686 28.6299 152.793 28.9775C153.908 29.3304 154.874 29.8392 155.669 30.4908C156.469 31.1443 157.106 31.9594 157.559 32.9134C158.016 33.8727 158.238 34.9496 158.238 36.2059C158.238 37.3445 158.053 38.3485 157.688 39.1901C157.321 40.03 156.813 40.7611 156.176 41.3622C155.545 41.9562 154.791 42.4538 153.935 42.8402C153.275 43.1372 152.406 43.3272 151.566 43.5112C151.392 43.5495 151.22 43.5865 151.054 43.6248C151.058 43.7153 151.065 43.8236 151.07 43.9271C151.081 44.1412 151.09 44.3411 151.089 44.3817C151.067 44.8752 150.97 45.4239 150.416 45.7574C149.954 46.0368 149.401 46.075 149.01 46.075ZM147.804 48.0717C146.401 48.0717 145.26 49.281 145.26 50.7678C145.26 52.2547 146.401 53.4639 147.804 53.4639H148.548C149.951 53.4639 151.093 52.2547 151.093 50.7678C151.093 49.281 149.951 48.0717 148.548 48.0717H147.804ZM148.548 54.052H147.804C146.076 54.052 144.671 52.5787 144.671 50.7678C144.671 48.9569 146.076 47.4836 147.804 47.4836H148.548C150.275 47.4836 151.681 48.9569 151.681 50.7678C151.681 52.5787 150.275 54.052 148.548 54.052Z" fill="white"/>
<path d="M47.2802 83.805L56.4141 82.9045L86.4267 94.1581L99.8641 90.2593C101.656 90.841 103.256 91.4109 104.7 91.972C104.726 91.822 113.622 95.041 114.121 95.2568C120.815 98.1564 127.183 102.07 132.37 107.237C138.631 113.477 142.742 121.491 143.641 130.327C144.252 136.332 143.223 142.467 143.109 148.508C142.982 155.308 142.936 162.11 142.971 168.911C143.043 182.513 143.442 196.114 144.167 209.696C144.216 210.606 144.257 211.562 143.851 212.377C142.523 215.041 129.954 215.66 127.307 215.757C121.319 215.976 30.8891 215.747 29.0958 215.757L26.7244 145.589C26.7244 145.589 3.41669 130.871 3.43434 130.374C3.45139 129.89 3.47375 129.411 3.50021 128.936C4.85589 105.202 23.6231 86.137 47.2802 83.805Z" fill="#4947DC"/>
<path d="M100.77 215.845H69.3445V102.773H100.77V215.845Z" fill="#F4F2ED"/>
<path d="M115.481 148.36C115.318 148.36 115.187 148.229 115.187 148.066V129.147C115.187 128.985 115.318 128.853 115.481 128.853C115.643 128.853 115.775 128.985 115.775 129.147V148.066C115.775 148.229 115.643 148.36 115.481 148.36Z" fill="#29297F"/>
<path d="M115.94 26.3041C113.968 20.0185 107.531 20.8231 104.208 21.7112C102.985 22.0382 102.18 22.3764 102.18 22.3764C99.5116 22.06 92.4121 17.4166 88.9032 15.0252C88.7862 14.9458 88.6744 14.8687 88.565 14.794C87.5311 14.0859 86.8812 13.623 86.8812 13.623L85.9201 31.5662C85.9201 31.5662 83.2823 39.2616 81.5702 38.2752C80.4309 37.6189 79.127 37.2124 77.729 37.1483L70.5789 36.8196L66.7865 36.6455C66.0301 36.6108 65.2938 36.6825 64.5862 36.839C63.2864 37.1248 62.089 37.7077 61.0762 38.5181C59.2206 40.0032 57.979 42.2399 57.8625 44.786L57.8314 45.4695C57.5967 50.5905 61.5943 54.9728 66.7147 55.208L68.3704 55.2839L58.9635 83.9637C56.4745 92.6372 63.5829 100.027 72.3951 102.556L72.7603 102.66C81.5725 105.189 90.8194 100.162 93.309 91.4891L96.6815 79.735C107.155 78.8451 115.45 69.8517 115.582 58.7834L115.94 28.5255C115.942 28.442 115.942 26.3882 115.94 26.3041Z" fill="#D96448"/>
<path d="M96.4998 80.0737C96.4998 80.0737 78.6013 76.4636 77.218 69.4241C75.8346 62.3846 77.218 69.4241 77.218 69.4241C77.218 69.4241 73.0156 81.8317 93.0874 92.1931L96.4998 80.0737Z" fill="#BB432A"/>
<path d="M65.6708 63.5134L73.0173 55.2834H68.3704L65.6708 63.5134Z" fill="#0B1126"/>
<path d="M124.673 11.4236C124.642 10.4125 124.502 9.38974 124.235 8.40871C123.807 6.846 123.057 5.39034 121.91 4.25757C118.49 0.881599 111.817 0.793961 107.903 3.34476C106.594 4.19816 105.785 5.51797 104.726 6.63251C104.9 6.52487 104.819 5.49268 104.809 5.29565C104.786 4.86042 104.711 4.42813 104.579 4.01289C104.329 3.22595 103.881 2.53076 103.284 1.96261C102.069 0.807487 100.385 0.226982 98.742 0.0576019C94.4997 -0.380569 90.8443 1.71442 88.0148 4.7022C87.8124 4.91512 87.6007 5.20743 87.7213 5.47444C87.149 4.21228 84.9658 3.97173 83.7677 3.93585C82.0739 3.88468 80.3818 4.34814 78.8808 5.11391C76.7235 6.21433 74.7091 7.92467 73.1105 9.73675C71.5737 11.4794 70.2756 13.495 69.4663 15.6794C69.4363 15.7588 69.4158 15.8405 69.3875 15.9199C66.375 17.0886 63.5896 20.2881 61.8928 23.6553C60.8682 25.6879 60.3583 28.2246 60.9847 30.5348C61.5663 32.6798 62.9744 35.0318 64.5859 36.8374C65.2934 36.6816 66.0298 36.6092 66.7862 36.6439L70.5785 36.8186L75.3284 37.0368C75.7795 39.3559 76.6335 41.5703 77.8351 43.5805L77.4716 52.4433C77.4381 53.2209 77.1476 53.9655 76.6459 54.5601C70.3215 66.1013 77.5081 80.401 90.5426 82.2124L91.8183 82.3901C92.1394 82.5253 92.4782 82.6124 92.8252 82.6483L101.782 83.5734C109.429 84.3633 116.084 78.3748 116.101 70.6877L115.625 55.0647L114.9 56.3681C114.419 57.2291 113.219 57.3273 112.605 56.5563C111.604 55.297 110.137 54.4942 108.537 54.3278L99.5054 53.3885C97.691 53.1997 95.8589 53.4961 94.1968 54.2472L93.0817 54.9524C89.6722 57.1097 85.2422 54.6024 85.3216 50.5689C85.3622 48.4751 85.6633 42.3643 85.8333 37.5397C87.286 31.6241 88.4223 24.2046 87.3266 16.9845C92.0636 20.7492 97.2557 23.6935 102.692 25.6956C105.913 26.8824 109.275 27.7447 112.638 27.4588C116.001 27.1724 119.388 25.6297 121.639 22.6295C123.969 19.5235 124.787 15.2542 124.673 11.4236Z" fill="#0B1126"/>
<path d="M65.2719 42.8305L68.1732 46.6347L65.0337 48.3385" fill="#D96448"/>
<path d="M65.0339 48.9259C64.8251 48.9259 64.6228 48.8148 64.5163 48.6183C64.361 48.3331 64.4675 47.9755 64.7527 47.8208L67.2888 46.4445L64.8039 43.1868C64.6069 42.928 64.6563 42.5592 64.9151 42.3622C65.1733 42.1652 65.5432 42.2158 65.7391 42.4734L68.6404 46.2775C68.7451 46.414 68.7839 46.5892 68.7474 46.7574C68.7122 46.9256 68.6039 47.0692 68.4528 47.1509L65.3138 48.8548C65.2244 48.903 65.1286 48.9259 65.0339 48.9259Z" fill="#BB432A"/>
<path d="M91.8233 34.8011C92.555 34.9752 93.4207 34.7359 94.2706 34.5524C95.1222 34.35 95.9827 34.1677 96.7367 34.0354C97.4913 33.9024 98.3629 33.7801 99.2334 33.6801C100.094 33.5625 100.995 33.4907 101.614 33.0796C102.213 32.692 102.339 31.861 101.402 31.0311C100.517 30.2183 98.4535 29.529 95.9544 29.9619C93.4613 30.4065 91.788 31.7534 91.261 32.8144C90.6952 33.9083 91.1193 34.6423 91.8233 34.8011Z" fill="#0B1126"/>
<path d="M110.407 33.1435C110.999 33.04 111.65 33.3099 112.294 33.5299C112.937 33.7669 113.59 33.9869 114.164 34.1545C114.74 34.3227 115.408 34.4909 116.078 34.6386C116.739 34.8009 117.435 34.9256 117.872 35.3308C118.297 35.7143 118.301 36.4565 117.475 37.1258C116.689 37.7828 114.997 38.2516 113.09 37.6993C111.19 37.1364 110.033 35.8331 109.742 34.8603C109.423 33.8546 109.838 33.2358 110.407 33.1435Z" fill="#0B1126"/>
<path d="M105.19 61.7849C105.177 61.7849 105.164 61.7849 105.151 61.7837L99.8302 61.4331C97.8505 61.3026 96.2219 59.5905 95.9573 57.3614C95.9184 57.0391 96.1496 56.7468 96.4719 56.708C96.7936 56.6721 97.0871 56.9003 97.1253 57.2226C97.3235 58.8894 98.4928 60.1663 99.9073 60.2592L105.228 60.6097C105.552 60.6315 105.798 60.9115 105.776 61.2355C105.756 61.5461 105.497 61.7849 105.19 61.7849Z" fill="#BB432A"/>
<path d="M102.449 42.759C102.281 40.8328 101.382 37.945 97.5975 37.1804C96.974 37.0546 96.39 37.0346 95.8372 37.0816C93.2758 37.301 91.4619 39.1654 90.3568 40.7811C89.5399 41.9768 90.1674 43.6459 91.576 43.9865C92.0171 44.0935 92.4588 44.1847 92.8982 44.2658C92.757 43.8618 92.6859 43.4319 92.7064 42.9855C92.8 40.9316 94.7073 39.3501 96.967 39.453C99.2267 39.556 100.982 41.3045 100.889 43.3583C100.866 43.84 100.742 44.2947 100.539 44.7087C100.786 44.6958 101.017 44.6817 101.222 44.667C101.942 44.614 102.501 44.0082 102.481 43.2866C102.477 43.1225 102.465 42.9437 102.449 42.759Z" fill="white"/>
<path d="M96.9666 39.4539C94.707 39.351 92.7996 40.9325 92.7061 42.9863C92.6861 43.4327 92.7572 43.8632 92.8978 44.2667C95.8803 44.8154 98.7434 44.8043 100.538 44.7102C100.741 44.2955 100.866 43.8409 100.888 43.3592C100.982 41.3054 99.2263 39.5568 96.9666 39.4539Z" fill="#0B1126"/>
<path d="M117.977 44.1429C117.843 42.6084 117.127 40.3075 114.112 39.6988C113.615 39.5982 113.151 39.5824 112.71 39.62C110.669 39.7947 109.224 41.2798 108.344 42.5672C107.693 43.5194 108.193 44.8492 109.315 45.121C109.682 45.2092 110.05 45.2856 110.416 45.3521C110.298 45.0239 110.238 44.6734 110.255 44.3093C110.329 42.6725 111.849 41.4127 113.649 41.495C115.449 41.5768 116.847 42.9695 116.773 44.6063C116.755 44.9951 116.653 45.3609 116.489 45.6944C116.673 45.6844 116.846 45.6738 117 45.6626C117.573 45.6209 118.019 45.1374 118.003 44.5634C118 44.4328 117.99 44.2899 117.977 44.1429Z" fill="white"/>
<path d="M113.649 41.4962C111.848 41.4144 110.329 42.6742 110.255 44.3105C110.238 44.6745 110.298 45.0251 110.416 45.3539C112.794 45.7856 115.07 45.7726 116.488 45.6962C116.653 45.3627 116.755 44.9963 116.773 44.6075C116.847 42.9713 115.449 41.5785 113.649 41.4962Z" fill="#0B1126"/>
<path d="M107.309 34.2733L109.551 47.8378C109.601 48.136 109.535 48.4377 109.362 48.6859C108.738 49.5858 106.855 51.4361 102.492 50.0604" fill="#D96448"/>
<path d="M105.374 51.1411C104.504 51.1411 103.491 50.9917 102.315 50.6206C102.005 50.5229 101.833 50.193 101.931 49.883C102.029 49.5731 102.36 49.4013 102.668 49.499C106.674 50.7629 108.348 49.1167 108.88 48.3497C108.964 48.2297 108.996 48.0815 108.972 47.9333L106.729 34.3689C106.676 34.0483 106.893 33.7454 107.213 33.6925C107.532 33.6413 107.837 33.8566 107.889 34.1771L110.132 47.7416C110.207 48.1933 110.106 48.6479 109.846 49.0214C109.333 49.7589 108.018 51.1411 105.374 51.1411Z" fill="#BB432A"/>
<path d="M97.0632 86.475C96.4098 85.7598 95.3029 85.7046 94.5806 86.3503L85.322 94.6326L62.3937 76.3471C61.4097 75.5631 60.0005 75.6125 59.0747 76.4647L49.3868 85.3793C48.4898 86.2045 48.4369 87.6025 49.2685 88.4935L70.7112 111.46C71.3659 112.161 72.4933 112.107 73.0774 111.345L85.365 95.3202L98.1978 109.779C98.7577 110.41 99.7981 110.124 99.9581 109.295L103.08 93.0576L97.0632 86.475Z" fill="white"/>
<path d="M96.4085 107.763L89.5813 118.32C88.6743 119.721 86.7052 119.93 85.5254 118.749L75.2722 108.482L85.3654 95.3203L96.4085 107.763Z" fill="#0B1126"/>
<path d="M72.9513 143.018L85.2936 137.409C89.2259 135.622 93.5218 135.086 97.6841 135.865L111.168 138.387C113.104 138.749 115.938 139.336 117.364 140.803L137.005 151.692C138.161 152.279 138.54 153.747 137.809 154.818L137.76 154.889C136.502 156.736 134.049 157.331 132.084 156.265L122.053 150.816L122.465 151.214C123.589 152.301 124.033 154.012 123.603 155.61L122.84 158.445L122.974 159.685C123.156 161.384 122.427 163.062 121.103 163.991L108.277 172.988C107.493 173.539 106.458 173.247 106.03 172.353C104.976 170.15 105.59 167.402 107.463 165.941L111.536 162.764L99.8026 166.238C97.8729 166.809 95.8532 166.871 93.9123 166.417L87.6379 164.95L77.3689 172.67L72.9513 143.018Z" fill="#D96448"/>
<path d="M121.824 151.312C121.763 151.312 121.703 151.293 121.651 151.255L114.92 146.37C114.789 146.275 114.76 146.091 114.855 145.959C114.95 145.828 115.135 145.799 115.266 145.894L121.997 150.78C122.129 150.875 122.157 151.059 122.062 151.191C122.005 151.27 121.915 151.312 121.824 151.312Z" fill="#BB432A"/>
<path d="M122.568 158.57C122.514 158.57 122.46 158.556 122.411 158.525L113.87 153.111C113.733 153.024 113.692 152.843 113.779 152.705C113.866 152.568 114.049 152.528 114.184 152.615L122.726 158.028C122.863 158.115 122.904 158.296 122.817 158.434C122.761 158.522 122.666 158.57 122.568 158.57Z" fill="#BB432A"/>
<path d="M111.536 163.058C111.444 163.058 111.353 163.015 111.295 162.932C111.202 162.799 111.235 162.616 111.368 162.523L113.839 160.797C113.971 160.705 114.154 160.736 114.248 160.87C114.342 161.003 114.309 161.186 114.175 161.28L111.705 163.005C111.653 163.041 111.595 163.058 111.536 163.058Z" fill="#BB432A"/>
<path d="M5.68139 122.647L40.7932 125.478L40.8932 138.605L81.3249 132.594C82.4047 132.434 83.4157 133.195 83.6674 134.358L91.6369 171.218C92.0256 173.013 90.9258 174.797 89.2619 175.075C81.6019 176.352 66.57 179.066 50.9264 181.586C43.404 182.798 35.7399 183.965 28.6862 184.906C24.538 185.459 20.541 184.882 16.9262 183.413C6.99649 179.377 -0.0524596 168.603 0.540394 156.001C0.730365 151.948 0.952097 148.29 1.20853 145.585C1.93136 137.933 3.55818 130.298 4.28101 122.647" fill="#4947DC"/>
<path d="M40.1642 138.674H40.1524C39.9901 138.667 39.8636 138.531 39.8701 138.369L40.8582 113.276C40.8647 113.115 40.9817 112.997 41.1634 112.994C41.3264 113.001 41.4522 113.138 41.4463 113.299L40.4583 138.392C40.4518 138.55 40.3218 138.674 40.1642 138.674Z" fill="#29297F"/>
<path d="M32.035 140.734C31.8939 140.734 31.7692 140.632 31.7456 140.488C31.7192 140.328 31.8268 140.177 31.9874 140.15L69.2965 133.959C69.4594 133.932 69.6088 134.04 69.6347 134.201C69.6612 134.361 69.553 134.513 69.393 134.539L32.0838 140.73C32.0674 140.733 32.0509 140.734 32.035 140.734Z" fill="#29297F"/>
<path d="M24.2708 185.665C21.0854 185.665 17.9176 184.779 15.1445 183.086C15.0063 183.001 14.9628 182.82 15.0469 182.681C15.1316 182.542 15.3121 182.499 15.4515 182.584C18.8281 184.645 22.8086 185.471 26.6622 184.902L69.2994 178.219C69.457 178.196 69.6099 178.302 69.6352 178.464C69.6605 178.624 69.5505 178.774 69.39 178.8L26.7504 185.483C25.927 185.604 25.0983 185.665 24.2708 185.665Z" fill="#29297F"/>
<path d="M248.964 113.402C249.799 112.867 250.238 111.927 250.57 111.02C250.731 110.582 250.868 110.138 250.994 109.692C254.611 104.646 255.079 97.5154 252.117 92.0539C250.403 88.8926 247.59 86.3841 244.332 84.8908C243.915 84.6997 243.49 84.525 243.059 84.3668C241.767 83.8945 240.418 83.5751 239.05 83.4328C238.103 83.3346 237.207 83.3546 236.373 83.1852C235.875 82.8247 235.412 82.4259 235.014 81.956C232.333 78.7859 233.496 74.1383 233.751 70.0342C233.939 66.9929 233.462 63.9669 232.448 61.112C236.313 59.5816 239.051 55.8187 239.051 51.4093C239.051 45.6431 234.376 40.9691 228.611 40.9691C224.764 40.9691 221.414 43.0541 219.602 46.1489C218.88 45.6872 218.135 45.2585 217.366 44.8709C205.055 38.6642 186.28 42.1325 178.738 54.3695C176.13 58.5989 175.68 63.7769 175.501 68.7415C175.433 70.5947 175.377 72.5215 174.524 74.1677C173.128 76.8632 170.656 78.5688 169.627 81.516C168.53 84.6562 168.694 88.1962 169.979 91.2546C170.656 92.8673 171.719 94.1018 172.723 95.5004C173.231 96.2086 174.336 97.6666 174.038 98.7035C173.943 98.8635 173.854 99.0252 173.763 99.1869C173.76 99.1899 173.758 99.1934 173.755 99.1964C173.754 99.1969 173.756 99.1993 173.755 99.1999C171.713 102.84 170.759 106.944 171.26 111.166C172.084 118.113 176.624 123.85 183.049 127.181C190.908 131.255 198.613 135.59 205.399 140.851C211.076 145.252 219.13 147.394 227.61 145.974C239.838 143.925 249.178 134.648 249.692 124.143C249.773 122.466 249.648 120.75 249.251 119.116C248.902 117.677 248.048 116.306 248.151 114.777C248.177 114.396 248.267 114.035 248.388 113.684C248.589 113.61 248.782 113.518 248.964 113.402Z" fill="#0B1126"/>
<path d="M149.693 165.582C148.015 123.388 186.677 118.406 186.677 118.406L186.679 118.581L197.313 118.617L211.461 125.233L225.141 116.46L237.515 119.086C237.515 119.086 265.233 125.759 264.252 159.947C264.232 160.627 263.731 161.203 263.05 161.319L251.6 172.808L247.37 204.42C249.303 208.326 252.59 215.888 252.59 215.888H151.31L149.693 165.582Z" fill="#FFD563"/>
<path d="M225.141 116.463L223.874 215.89H186.006L184.926 118.725" fill="#F4F2ED"/>
<path d="M204.538 135.936L204.892 135.927C213.422 135.726 221.576 130.864 221.4 122.674L221.143 118.392C221.041 116.69 219.827 115.26 218.163 114.884L205.034 111.914L190.925 116.693C189.556 117.157 188.646 118.455 188.677 119.899L188.709 121.411C188.885 129.601 196.008 136.137 204.538 135.936Z" fill="#FFD563"/>
<path d="M204.267 161.332C204.105 161.332 203.973 161.2 203.973 161.038V137.136C203.973 136.973 204.105 136.842 204.267 136.842C204.43 136.842 204.561 136.973 204.561 137.136V161.038C204.561 161.2 204.43 161.332 204.267 161.332Z" fill="#FFD563"/>
<path d="M197.984 138.007C197.325 138.007 196.788 138.533 196.788 139.182C196.788 139.83 197.325 140.356 197.984 140.356C198.643 140.356 199.18 139.83 199.18 139.182C199.18 138.533 198.643 138.007 197.984 138.007ZM197.984 140.944C197 140.944 196.2 140.153 196.2 139.182C196.2 138.209 197 137.418 197.984 137.418C198.968 137.418 199.768 138.209 199.768 139.182C199.768 140.153 198.968 140.944 197.984 140.944Z" fill="#FFD563"/>
<path d="M197.804 147.4C197.145 147.4 196.609 147.927 196.609 148.575C196.609 149.223 197.145 149.75 197.804 149.75C198.464 149.75 199 149.223 199 148.575C199 147.927 198.464 147.4 197.804 147.4ZM197.804 150.338C196.821 150.338 196.021 149.547 196.021 148.575C196.021 147.603 196.821 146.812 197.804 146.812C198.788 146.812 199.588 147.603 199.588 148.575C199.588 149.547 198.788 150.338 197.804 150.338Z" fill="#FFD563"/>
<path d="M204.044 171.012L193.846 165.626C190.597 163.909 186.976 163.238 183.402 163.689L171.824 165.149C170.162 165.359 167.725 165.714 166.44 166.888L149.21 175.142C148.199 175.583 147.803 176.81 148.37 177.757C148.382 177.777 148.394 177.798 148.407 177.819C149.382 179.452 151.436 180.081 153.158 179.275L161.952 175.155L161.583 175.471C160.573 176.338 160.11 177.769 160.394 179.147L160.898 181.593L160.723 182.639C160.481 184.073 161.015 185.534 162.093 186.391L172.531 194.679C173.17 195.186 174.062 194.991 174.471 194.254C175.477 192.435 175.095 190.071 173.578 188.736L170.28 185.832L180.068 189.375C181.679 189.958 183.39 190.112 185.062 189.824L190.464 188.896L198.795 195.97L204.044 171.012Z" fill="#FF9278"/>
<path d="M162.136 175.632C162.04 175.632 161.945 175.584 161.889 175.497C161.801 175.359 161.841 175.178 161.978 175.09L167.941 171.282C168.077 171.193 168.26 171.233 168.347 171.37C168.435 171.507 168.395 171.689 168.258 171.776L162.295 175.586C162.246 175.617 162.191 175.632 162.136 175.632Z" fill="#FF6A48"/>
<path d="M161.138 181.758C161.034 181.758 160.933 181.704 160.881 181.607C160.802 181.464 160.853 181.285 160.995 181.207L168.522 177.041C168.665 176.964 168.843 177.014 168.922 177.157C169 177.299 168.949 177.478 168.807 177.556L161.28 181.722C161.235 181.746 161.186 181.758 161.138 181.758Z" fill="#FF6A48"/>
<path d="M170.28 186.126C170.216 186.126 170.151 186.106 170.097 186.063L168.086 184.472C167.959 184.372 167.937 184.186 168.037 184.059C168.138 183.932 168.324 183.911 168.451 184.011L170.463 185.601C170.589 185.702 170.611 185.887 170.511 186.015C170.453 186.088 170.366 186.126 170.28 186.126Z" fill="#FF6A48"/>
<path d="M262.2 157.112L232.239 157.743L231.491 168.885L197.46 161.739C196.55 161.548 195.654 162.143 195.382 163.118L186.751 194.018C186.331 195.523 187.174 197.094 188.573 197.413C195.014 198.884 207.642 201.949 220.799 204.879C227.127 206.288 233.576 207.667 239.519 208.822C243.014 209.501 246.437 209.213 249.581 208.148C258.217 205.222 264.747 196.429 264.882 185.697C264.924 182.246 264.92 179.128 264.84 176.818C264.612 170.284 264.488 163.297 264.26 156.762" fill="#FFD563"/>
<path d="M232.122 169.025H232.116C231.954 169.022 231.824 168.887 231.828 168.725L232.257 147.367C232.26 147.204 232.388 147.088 232.557 147.078C232.72 147.081 232.848 147.216 232.845 147.378L232.416 168.737C232.413 168.897 232.281 169.025 232.122 169.025Z" fill="#D3A739"/>
<path d="M238.92 171.185C238.899 171.185 238.877 171.182 238.855 171.177L220.305 166.954C220.147 166.918 220.047 166.761 220.084 166.602C220.12 166.444 220.272 166.343 220.435 166.381L238.986 170.604C239.144 170.64 239.243 170.798 239.207 170.956C239.176 171.092 239.055 171.185 238.92 171.185Z" fill="#D3A739"/>
<path d="M244.099 209.758C243.103 209.758 242.107 209.658 241.126 209.453L221.971 205.466C221.812 205.433 221.71 205.277 221.743 205.118C221.776 204.959 221.933 204.855 222.09 204.89L241.246 208.878C244.481 209.551 247.892 209.054 250.854 207.479C250.995 207.402 251.175 207.457 251.252 207.601C251.328 207.744 251.274 207.922 251.13 207.999C248.945 209.16 246.523 209.758 244.099 209.758Z" fill="#D3A739"/>
<path d="M220.881 77.0677L214.307 77.6212C211.584 77.2159 208.846 73.4071 207.251 68.259C204.515 67.6315 201.971 66.2229 199.941 64.1649C195.918 68.1126 190.767 71.385 185.644 69.6894C182.914 68.7854 180.875 67.585 179.354 66.3287C179.325 66.3052 179.302 66.2746 179.274 66.2499C179.272 66.2781 179.268 66.3052 179.266 66.3334L177.402 92.4454C176.746 101.628 182.712 109.73 191.116 111.727L191.259 118.385C191.418 125.791 197.496 131.71 204.765 131.538L205.066 131.53C212.334 131.358 219.276 126.971 219.117 119.566L217.617 93.6153L220.79 93.6323C225.141 93.6547 228.72 89.9887 228.745 85.4847L228.746 85.2983C228.771 80.7942 225.231 77.0907 220.881 77.0677Z" fill="#FF9278"/>
<path d="M221.721 88.1659C221.614 88.1659 221.505 88.1365 221.408 88.0747L218.778 86.4126C218.636 86.3226 218.539 86.1756 218.512 86.0092C218.485 85.8427 218.531 85.6733 218.638 85.5428L221.307 82.2815C221.512 82.0297 221.882 81.9927 222.134 82.1985C222.385 82.4044 222.422 82.7749 222.216 83.0261L219.969 85.7733L222.036 87.0808C222.311 87.2543 222.393 87.6172 222.219 87.8918C222.107 88.0688 221.916 88.1659 221.721 88.1659Z" fill="#FF6A48"/>
<path d="M222.177 91.3034C222.095 91.3034 222.013 91.3069 221.931 91.3152C220.461 91.454 219.374 92.8091 219.507 94.3353C219.574 95.0928 219.925 95.7727 220.497 96.2491C221.038 96.7002 221.719 96.9126 222.411 96.8479C223.882 96.7085 224.969 95.354 224.836 93.8277C224.769 93.0702 224.418 92.3909 223.846 91.9145C223.368 91.5157 222.783 91.3034 222.177 91.3034ZM222.164 97.4478C221.422 97.4478 220.705 97.1878 220.121 96.7008C219.427 96.1233 219.002 95.3016 218.921 94.3865C218.76 92.5397 220.085 90.8988 221.876 90.7294C222.726 90.6476 223.559 90.9093 224.223 91.4628C224.916 92.0398 225.342 92.8614 225.422 93.7766C225.583 95.6233 224.258 97.2643 222.467 97.4331C222.366 97.4431 222.265 97.4478 222.164 97.4478Z" fill="white"/>
<path d="M188.927 82.7205C188.144 81.3501 186.807 79.7338 184.763 79.3915C184.322 79.318 183.851 79.2963 183.343 79.3568C183.302 79.3621 183.266 79.3704 183.226 79.3763C184.083 79.9462 184.627 80.8784 184.591 81.9123C184.532 83.5692 183.008 84.8607 181.186 84.7966C180.344 84.7666 179.587 84.4508 179.021 83.9579C178.965 84.5314 179.373 85.0484 179.944 85.1372C181.464 85.3724 184.584 85.7153 187.739 85.2172C188.892 85.0348 189.505 83.7344 188.927 82.7205Z" fill="white"/>
<path d="M184.591 81.9131C184.627 80.8791 184.083 79.9463 183.226 79.377C180.232 79.7893 179.338 82.0083 179.082 83.5252C179.057 83.6722 179.036 83.8151 179.021 83.9469C179.021 83.951 179.021 83.9545 179.021 83.9586C179.587 84.4509 180.344 84.7673 181.186 84.7968C183.009 84.8609 184.532 83.5699 184.591 81.9131Z" fill="#0B1126"/>
<path d="M188.752 102.439C188.82 102.461 188.895 102.46 188.966 102.432C189.038 102.402 190.763 101.725 191.945 103.161C192.059 103.299 192.26 103.316 192.395 103.198C192.529 103.079 192.545 102.871 192.431 102.732C190.946 100.931 188.754 101.809 188.731 101.818C188.569 101.885 188.489 102.076 188.554 102.246C188.59 102.341 188.665 102.409 188.752 102.439Z" fill="#FF6A48"/>
<path d="M205.881 74.8497C205.31 75.0044 204.627 74.8262 203.957 74.6932C203.286 74.545 202.608 74.4133 202.015 74.3204C201.421 74.2262 200.734 74.1433 200.051 74.078C199.373 73.9986 198.666 73.9575 198.173 73.6357C197.696 73.3317 197.584 72.66 198.303 71.9689C198.983 71.2926 200.588 70.6938 202.556 70.9985C204.519 71.3126 205.855 72.3748 206.286 73.2258C206.75 74.1039 206.43 74.7074 205.881 74.8497Z" fill="#0B1126"/>
<path d="M179.881 74.0624C180.438 74.2606 181.133 74.1359 181.81 74.0542C182.49 73.9577 183.176 73.8783 183.774 73.8307C184.374 73.783 185.064 73.7525 185.75 73.7407C186.432 73.713 187.14 73.7266 187.655 73.4431C188.152 73.1767 188.314 72.515 187.646 71.771C187.018 71.044 185.46 70.3241 183.476 70.4771C181.496 70.64 180.086 71.5969 179.594 72.4126C179.068 73.2525 179.343 73.8789 179.881 74.0624Z" fill="#0B1126"/>
<path d="M199.666 92.3883C199.115 91.9507 198.344 91.9943 197.8 92.4418C196.812 93.2582 194.683 94.6786 191.763 94.7791C191.047 94.8033 190.622 95.6349 190.883 96.3266C191.457 97.8469 193.105 100.245 196.972 98.6921C201.684 96.7994 201.1 93.5287 199.666 92.3883Z" fill="white"/>
<path d="M192.639 89.746C191.279 89.8136 190.194 90.0789 188.962 89.219C187.816 88.4185 186.904 86.7982 187.306 85.3478C187.483 84.7067 188.027 84.2398 188.662 84.1309L189.957 83.9098L190.596 77.8225" fill="#FF9278"/>
<path d="M191.028 90.4261C190.246 90.4261 189.468 90.2891 188.625 89.701C187.319 88.7893 186.252 86.9467 186.739 85.1905C186.973 84.3435 187.69 83.7001 188.564 83.5507L189.419 83.4048L190.011 77.7604C190.045 77.4375 190.329 77.2034 190.657 77.2369C190.98 77.2705 191.214 77.5604 191.181 77.8833L190.542 83.9706C190.515 84.2329 190.316 84.4447 190.056 84.4894L188.761 84.7105C188.335 84.7835 187.986 85.0952 187.873 85.5039C187.548 86.6773 188.342 88.0689 189.299 88.7364C190.16 89.3381 190.913 89.2804 191.956 89.2016C192.168 89.1857 192.386 89.1693 192.61 89.1581C192.951 89.1363 193.211 89.3922 193.227 89.7163C193.243 90.0409 192.993 90.3168 192.669 90.3326C192.454 90.3438 192.247 90.3591 192.045 90.375C191.702 90.4009 191.364 90.4261 191.028 90.4261Z" fill="#FF6A48"/>
<path d="M206.736 82.3899C205.779 80.7154 204.146 78.741 201.649 78.3222C201.109 78.2323 200.535 78.2058 199.913 78.2799C199.707 78.3046 199.514 78.3387 199.324 78.3764C200.924 78.9104 202.045 80.3308 201.988 81.9594C201.916 83.9832 200.054 85.5612 197.827 85.4829C196.494 85.4359 195.337 84.8042 194.635 83.8726C194.635 83.8773 194.633 83.8832 194.633 83.8879C194.556 84.5948 195.058 85.2342 195.76 85.343C197.618 85.6306 201.431 86.0493 205.285 85.4406C206.695 85.2177 207.444 83.6285 206.736 82.3899Z" fill="white"/>
<path d="M197.826 85.4825C200.053 85.5607 201.916 83.9833 201.987 81.9589C202.045 80.3303 200.924 78.9105 199.324 78.3759C196.021 79.0311 195.007 81.5966 194.706 83.3722C194.677 83.5463 194.652 83.7151 194.635 83.8721C195.337 84.8038 196.494 85.4354 197.826 85.4825Z" fill="#0B1126"/>
<path d="M191.132 111.741C191.132 111.741 206.657 112.125 209.132 106.35C211.607 100.574 209.132 106.35 209.132 106.35C209.132 106.35 210.027 115.053 191.425 120.044L191.132 111.741Z" fill="#FF6A48"/>
<path d="M197.005 214.103C197.005 212.36 195.593 210.947 193.85 210.947H145.995L122.451 152.671C121.596 150.554 119.541 149.168 117.257 149.168H39.2658C36.705 149.168 34.9394 151.734 35.8551 154.125L59.7545 216.556H59.7551L146.714 216.176C146.735 216.176 146.754 216.169 146.775 216.168H197.005V214.103Z" fill="#0B1126"/>
<path d="M156.997 214.473H151.389C151.346 214.473 151.31 214.438 151.31 214.394V213.111C151.31 213.067 151.346 213.031 151.389 213.031H156.997C157.041 213.031 157.077 213.067 157.077 213.111V214.394C157.077 214.438 157.041 214.473 156.997 214.473Z" fill="white"/>
<path d="M166.936 214.473H161.328C161.285 214.473 161.249 214.438 161.249 214.394V213.111C161.249 213.067 161.285 213.031 161.328 213.031H166.936C166.98 213.031 167.016 213.067 167.016 213.111V214.394C167.016 214.438 166.98 214.473 166.936 214.473Z" fill="white"/>
<path d="M88.3329 188.266C85.8068 190.793 81.0975 190.177 77.8133 186.894C74.529 183.61 73.9144 178.9 76.4399 176.374C78.9654 173.849 83.6753 174.463 86.9595 177.747C90.2432 181.031 90.8584 185.741 88.3329 188.266Z" fill="white"/>
<path d="M80.4547 175.114C78.9878 175.114 77.638 175.592 76.6476 176.582C74.2409 178.989 74.8567 183.522 78.0209 186.686C81.1845 189.85 85.7174 190.467 88.1247 188.059C90.5314 185.652 89.9156 181.12 86.7514 177.955C84.8893 176.093 82.552 175.114 80.4547 175.114ZM84.3205 190.11C82.0668 190.11 79.5801 189.076 77.6051 187.102C75.9712 185.467 74.9243 183.438 74.6567 181.387C74.385 179.308 74.9443 177.454 76.2317 176.166C77.5198 174.879 79.3748 174.32 81.4527 174.591C83.5042 174.858 85.5333 175.906 87.1672 177.54C90.5608 180.933 91.176 185.838 88.5405 188.475C87.4383 189.577 85.9397 190.11 84.3205 190.11Z" fill="#121936"/>
<path d="M80.0458 172.627C78.0591 172.627 76.2282 173.277 74.8831 174.622C71.6312 177.874 72.4399 183.973 76.6852 188.217C80.9304 192.462 87.0295 193.271 90.2808 190.019C93.5327 186.768 92.724 180.669 88.4793 176.424C85.9897 173.935 82.8625 172.627 80.0458 172.627ZM85.1198 192.306C82.2255 192.306 79.0231 190.971 76.4775 188.425C72.1176 184.066 71.3089 177.781 74.6749 174.413C78.042 171.048 84.3276 171.856 88.6869 176.216C93.0463 180.576 93.855 186.862 90.489 190.228C89.0886 191.628 87.1824 192.306 85.1198 192.306Z" fill="white"/>
<path d="M252.362 217.439H29.6383C29.286 217.439 29 217.044 29 216.557C29 216.07 29.286 215.675 29.6383 215.675H252.362C252.714 215.675 253 216.07 253 216.557C253 217.044 252.714 217.439 252.362 217.439Z" fill="#121936"/>
</svg>
